<svg data-v-0dd9719b="" version="1.0" xmlns="http://www.w3.org/2000/svg" xmlns:xlink="http://www.w3.org/1999/xlink" width="100%" height="100%" viewBox="0 0 340.000000 250.000000" preserveAspectRatio="xMidYMid meet" color-interpolation-filters="sRGB" style="margin: auto;"> <rect data-v-0dd9719b="" x="0" y="0" width="100%" height="100%" fill="#ffffff" fill-opacity="1" class="background"></rect> <rect data-v-0dd9719b="" x="0" y="0" width="100%" height="100%" fill="url(#watermark)" fill-opacity="1" class="watermarklayer"></rect> <g data-v-0dd9719b="" fill="#bb2e2e" class="endsvg" transform="translate(44.24500274658203,100.88500022888184)"><!----> <g class="tp-name"><g><rect data-gra="graph-name-bg" stroke-width="2" class="i-icon-bg" x="0" y="0" width="251.50999450683594" height="48.22999954223633" fill-opacity="0"></rect> <!----> <!----> </g> <g transform="translate(0,0)"><g data-gra="path-name-bg" mask="url(#f08dad4d-b61d-49cc-bee4-c6c67867c8cd)"><g><rect data-gra="graph-name-bg" stroke-width="2" class="i-icon-bg" x="0" y="0" width="126.40999603271484" height="48.22999954223633" fill="#bb2e2e"></rect> <!----> <!----> </g> <g transform="translate(5,5)"><g data-gra="path-name" fill="#bb2e2e"><g transform="scale(1)"><path d="M11.00 4.11Q8.12 4.11 5.66 3.14Q3.21 2.17 1.70 0.21Q0.19-1.75 0.19-4.53L0.19-4.53Q0.19-8.02 2.36-9.56Q4.53-11.09 7.46-11.09L7.46-11.09Q5.95-9.53 5.17-7.83Q4.39-6.13 4.39-4.53L4.39-4.53Q4.39-1.98 6.35-0.19Q8.31 1.60 11.80 1.60L11.80 1.60Q14.02 1.60 16.02 0.87Q18.03 0.14 19.28-1.32Q20.53-2.78 20.53-4.77L20.53-4.77Q20.53-6.51 19.54-7.88Q18.55-9.25 17.11-10.24Q15.67-11.23 13.21-12.55L13.21-12.55Q10.62-13.97 9.01-15.05Q7.41-16.14 6.32-17.72Q5.24-19.30 5.24-21.38L5.24-21.38Q5.24-24.07 6.98-27.04Q8.73-30.01 11.89-31.99Q15.05-33.98 18.97-33.98L18.97-33.98Q24.87-33.98 24.87-29.02L24.87-29.02Q24.87-26.61 23.71-23.67Q22.56-20.72 21.09-18.45L21.09-18.45Q19.02-18.88 19.02-20.86L19.02-20.86Q19.02-21.75 19.37-22.91Q19.73-24.07 20.39-25.67L20.39-25.67Q21.05-27.46 21.38-28.50Q21.71-29.54 21.71-30.39L21.71-30.39Q21.71-31.29 21.16-31.73Q20.62-32.18 19.21-32.18L19.21-32.18Q16.37-32.18 14.02-30.58Q11.66-28.97 10.26-26.69Q8.87-24.40 8.87-22.46L8.87-22.46Q8.87-21.05 9.72-19.91Q10.57-18.78 11.87-17.96Q13.17-17.13 15.38-15.95L15.38-15.95Q18.17-14.44 19.84-13.31Q21.52-12.17 22.72-10.38Q23.92-8.59 23.92-6.09L23.92-6.09Q23.92-2.97 22.06-0.66Q20.20 1.65 17.20 2.88Q14.20 4.11 11.00 4.11L11.00 4.11ZM29.07 4.11Q29.63 0.52 30.67-3.49Q31.71-7.50 33.98-14.44L33.98-14.44Q31.38-14.20 30.91-14.16L30.91-14.16Q30.91-15.57 31.97-16.40Q33.03-17.22 35.01-17.65L35.01-17.65Q35.25-18.45 35.63-19.39L35.63-19.39L38.93-29.07Q38.98-29.16 39.24-29.89Q39.50-30.63 39.50-31.33L39.50-31.33Q39.50-31.71 39.36-31.85Q39.21-31.99 38.88-31.99L38.88-31.99Q37.66-31.99 36.41-30.60Q35.16-29.21 34.31-27.25Q33.46-25.29 33.46-23.83L33.46-23.83Q33.46-23.08 33.93-21.71L33.93-21.71Q32.04-21.71 31.12-22.53Q30.20-23.36 30.20-24.82L30.20-24.82Q30.20-26.85 31.83-29.00Q33.46-31.14 35.82-32.56Q38.18-33.98 40.11-33.98L40.11-33.98Q41.53-33.98 42.14-33.24Q42.75-32.51 42.75-31.38L42.75-31.38Q42.75-30.58 42.38-29.35L42.38-29.35L38.93-18.03Q39.69-18.07 41.29-18.07L41.29-18.07Q45.54-18.07 49.55-17.70L49.55-17.70Q52.38-27.23 54.17-31.38L54.17-31.38Q54.65-32.42 55.38-33.22Q56.11-34.02 57.57-34.02L57.57-34.02Q56.58-31.33 55.14-26.59Q53.70-21.85 52.62-17.46L52.62-17.46L54.27-17.41Q55.87-17.32 56.72-17.32L56.72-17.32Q55.40-16.00 54.31-15.57Q53.23-15.15 52.05-15.15L52.05-15.15Q50.68-9.34 50.00-5.05Q49.31-0.76 49.31 1.60L49.31 1.60Q49.31 2.83 49.55 4.11L49.55 4.11Q47.14 3.87 46.27 2.95Q45.40 2.03 45.40-0.28L45.40-0.28Q45.40-2.41 46.13-5.73Q46.86-9.06 48.79-15.10L48.79-15.10Q45.07-15.10 42.49-15.03Q39.92-14.96 37.89-14.77L37.89-14.77Q37.80-14.49 37.00-11.80Q36.19-9.11 33.03 0.90L33.03 0.90Q32.56 2.45 31.36 3.28Q30.15 4.11 29.07 4.11L29.07 4.11ZM68.38 4.11Q65.59 4.11 63.33 2.67Q61.06 1.23 59.77-1.46Q58.47-4.15 58.47-7.74L58.47-7.74Q58.47-13.68 61.46-19.82Q64.46-25.95 69.27-29.94Q74.09-33.93 79.14-33.93L79.14-33.93Q81.07-33.93 82.35-32.61L82.35-32.61Q81.59-32.70 80.98-32.70L80.98-32.70Q77.01-32.70 72.88-28.74Q68.75-24.77 66.06-18.83Q63.38-12.88 63.38-7.46L63.38-7.46Q63.38-3.40 65.00-0.78Q66.63 1.84 70.03 1.84L70.03 1.84Q74.13 1.84 77.56-2.08Q80.98-5.99 82.93-11.82Q84.89-17.65 84.89-22.93L84.89-22.93Q84.89-25.53 84.40-27.63Q83.90-29.73 82.77-29.73L82.77-29.73Q81.78-29.73 80.48-28.05Q79.18-26.38 78.10-24.02Q77.01-21.66 76.64-19.77L76.64-19.77Q73.66-20.39 73.66-22.51L73.66-22.51Q73.66-24.16 75.22-26.33Q76.78-28.50 78.95-30.08Q81.12-31.66 82.86-31.66L82.86-31.66Q85.37-31.66 86.36-28.50Q87.35-25.34 87.35-21.24L87.35-21.24Q87.35-13.68 84.37-7.90Q81.40-2.12 76.99 0.99Q72.58 4.11 68.38 4.11L68.38 4.11ZM92.49 4.11Q91.03 4.11 89.80 3.33Q88.57 2.55 88.57 1.42L88.57 1.42Q88.57 0.61 89.19-1.23L89.19-1.23Q92.82-12.36 95.04-18.59Q97.26-24.82 100.47-31.95L100.47-31.95Q98.06-31.38 95.51-30.06L95.51-30.06Q94.38-29.49 94.14-29.49L94.14-29.49Q93.72-29.49 93.03-30.18Q92.35-30.86 92.35-31.33L92.35-31.33Q98.67-33.98 103.44-33.98L103.44-33.98Q106.55-33.98 109.60-32.89Q112.64-31.81 114.62-29.71Q116.60-27.61 116.60-24.73L116.60-24.73Q116.60-20.20 112.97-17.74Q109.34-15.29 105.02-14.46Q100.70-13.64 97.73-13.64L97.73-13.64L97.45-13.64L94.80-4.15Q93.81-0.38 92.49 4.11L92.49 4.11ZM97.87-15.10Q101.65-15.34 105.02-16.56Q108.39-17.79 110.54-20.06Q112.69-22.32 112.69-25.48L112.69-25.48Q112.69-28.74 110.19-30.48Q107.69-32.23 104.10-32.32L104.10-32.32Q101.27-26.85 97.87-15.10L97.87-15.10Z" transform="translate(-0.18875666803446864, 34.11776774723021)"></path></g></g></g></g> <g data-gra="path-name-1-bg" transform="translate(126.40999603271484,0)"><g><rect data-gra="graph-name-bg" stroke-width="2" class="i-icon-bg" x="0" y="0" width="125.0999984741211" height="48.22999954223633" fill-opacity="0"></rect> <!----> <!----> </g> <g transform="translate(5,5)"><g data-gra="path-name-1" fill="#bb2e2e"><g transform="scale(1)"><path d="M7.79 4.11Q4.86 4.11 3.42 3.14Q1.98 2.17 1.93 0.05L1.93 0.05Q1.93-0.42 2.45-0.42L2.45-0.42Q2.74-0.42 3.75-0.21Q4.77 0 7.08 0L7.08 0Q12.46 0 16.82-1.49Q21.19-2.97 23.69-5.38Q26.19-7.79 26.19-10.48L26.19-10.48Q26.19-13.78 22.75-14.94Q19.30-16.09 13.97-16.09L13.97-16.09L10.48-16.04Q9.77-13.64 9.23-11.61Q8.68-9.58 8.26-8.07L8.26-8.07Q6.89-2.93 6.37-1.13L6.37-1.13Q4.95-1.13 3.92-1.89Q2.88-2.64 2.88-3.73L2.88-3.73Q2.88-4.58 3.35-5.90L3.35-5.90L3.54-6.46L4.15-8.35Q9.39-24.68 13.12-31.90L13.12-31.90Q10.76-31.38 8.26-30.01L8.26-30.01Q8.02-29.92 7.60-29.71Q7.17-29.49 6.98-29.49L6.98-29.49Q6.51-29.49 5.80-30.18Q5.10-30.86 5.10-31.33L5.10-31.33Q8.35-32.65 10.92-33.32Q13.50-33.98 16.99-33.98L16.99-33.98Q21.66-33.98 25.25-32.37Q28.83-30.77 28.83-26.28L28.83-26.28Q28.83-22.65 25.98-20.50Q23.12-18.36 18.97-17.37L18.97-17.37Q24.30-16.66 26.71-14.49Q29.12-12.32 29.12-9.77L29.12-9.77Q29.12-5.47 25.55-2.31Q21.99 0.85 16.96 2.48Q11.94 4.11 7.79 4.11L7.79 4.11ZM10.95-17.84Q17.08-18.07 21.16-20.17Q25.25-22.27 25.25-26.66L25.25-26.66Q25.25-32.32 16.37-32.32L16.37-32.32Q13.73-27.23 10.95-17.84L10.95-17.84ZM32.84 4.11Q30.67 2.97 30.67 1.18L30.67 1.18Q30.67-0.61 32.56-4.36Q34.45-8.12 37.61-12.98L37.61-12.98Q34.78-13.17 30.67-13.17L30.67-13.17Q31.81-16.23 36.15-16.23L36.15-16.23Q37.09-16.23 39.64-15.95L39.64-15.95Q44.92-23.59 49.50-28.83Q54.08-34.07 55.59-34.07L55.59-34.07Q56.82-34.07 58.80-32.23L58.80-32.23Q57.85-31.52 56.04-26.36Q54.22-21.19 52.83-15.03Q51.44-8.87 51.44-5.10L51.44-5.10Q51.44-3.21 51.84-2.29Q52.24-1.37 53.09-1.37L53.09-1.37Q54.27-1.37 55.87-3.09Q57.48-4.81 59.36-8.40L59.36-8.40L60.21-7.50Q58.70-3.49 56.34-1.06Q53.98 1.37 51.44 1.37L51.44 1.37Q49.27 1.37 48.27-0.52Q47.28-2.41 47.28-5.95L47.28-5.95Q47.28-8.26 47.90-11.80L47.90-11.80Q45.49-12.17 41.15-12.69L41.15-12.69Q36.76-4.91 32.84 4.11L32.84 4.11ZM48.37-14.11Q49.22-18.07 50.59-22.32Q51.96-26.57 53.37-29.92L53.37-29.92Q51.29-28.27 48.51-24.44Q45.73-20.62 42.66-15.38L42.66-15.38L46.20-14.63Q47.61-14.25 48.37-14.11L48.37-14.11ZM71.82 4.11Q68.38 4.11 66.06 2.45Q63.75 0.80 62.64-1.84Q61.53-4.48 61.53-7.55L61.53-7.55Q61.53-13.64 64.53-19.80Q67.53-25.95 72.20-29.94Q76.87-33.93 81.59-33.93L81.59-33.93Q83.81-33.93 85.15-32.89Q86.50-31.85 86.50-29.63L86.50-29.63Q86.50-27.75 85.62-25.29Q84.75-22.84 83.41-21.12Q82.06-19.39 80.69-19.39L80.69-19.39Q79.51-19.39 78.76-20.86L78.76-20.86Q80.55-22.84 82.23-25.58Q83.90-28.31 83.90-30.01L83.90-30.01Q83.90-31.85 81.78-31.85L81.78-31.85Q78.48-31.85 74.77-27.84Q71.07-23.83 68.59-17.98Q66.11-12.13 66.11-7.13L66.11-7.13Q66.11-3.35 67.81-0.76Q69.51 1.84 72.95 1.84L72.95 1.84Q75.41 1.84 77.96 0.45Q80.50-0.94 82.63-3.26Q84.75-5.57 86.03-8.26L86.03-8.26L87.25-7.46Q84.56-2.36 80.58 0.87Q76.59 4.11 71.82 4.11L71.82 4.11ZM112.17 4.11Q110.42 4.11 107.80 1.32Q105.18-1.46 102.52-5.45Q99.85-9.44 98.01-12.98L98.01-12.98L93.72 0.90Q93.25 2.41 91.92 2.83Q90.60 3.26 88.62 3.26L88.62 3.26Q89.47 1.42 90.30-0.80Q91.12-3.02 92.77-7.93L92.77-7.93Q97.26-21.05 100.18-29.07L100.18-29.07Q100.23-29.21 100.49-29.87Q100.75-30.53 100.75-31.10L100.75-31.10Q100.75-31.99 99.81-31.99L99.81-31.99Q98.44-31.99 97.12-30.60Q95.79-29.21 94.99-27.25Q94.19-25.29 94.19-23.88L94.19-23.88Q94.19-22.79 94.66-21.71L94.66-21.71Q92.73-21.71 91.81-22.53Q90.89-23.36 90.89-24.77L90.89-24.77Q90.89-26.80 92.54-28.95Q94.19-31.10 96.55-32.54Q98.91-33.98 100.84-33.98L100.84-33.98Q103.44-33.98 103.44-31.24L103.44-31.24Q103.44-30.34 103.11-29.35L103.11-29.35L99.62-18.03Q100.18-18.36 102.87-20.43L102.87-20.43Q106.88-23.55 110.35-27.11Q113.82-30.67 116.09-34.12L116.09-34.12Q116.60-33.65 116.82-32.91Q117.03-32.18 117.03-31.57L117.03-31.57Q117.03-28.36 111.72-23.90Q106.41-19.44 99.62-15.10L99.62-15.10Q102.12-11.23 103.89-8.82Q105.66-6.42 108.35-3.70Q111.04-0.99 115.09 2.12L115.09 2.12Q114.67 2.93 113.82 3.52Q112.97 4.11 112.17 4.11L112.17 4.11Z" transform="translate(-1.9347558473533037, 34.11776774723021)"></path></g></g></g></g></g></g> <!----> <!----> <!----> <!----> <!----></g><mask id="f08dad4d-b61d-49cc-bee4-c6c67867c8cd"><g fill="white"><rect data-gra="graph-name-bg" stroke-width="2" class="i-icon-bg" x="0" y="0" width="126.40999603271484" height="48.22999954223633"></rect>   </g> <g transform="translate(5,5)" fill="black"><g data-gra="path-name"><g transform="scale(1)"><path d="M11.00 4.11Q8.12 4.11 5.66 3.14Q3.21 2.17 1.70 0.21Q0.19-1.75 0.19-4.53L0.19-4.53Q0.19-8.02 2.36-9.56Q4.53-11.09 7.46-11.09L7.46-11.09Q5.95-9.53 5.17-7.83Q4.39-6.13 4.39-4.53L4.39-4.53Q4.39-1.98 6.35-0.19Q8.31 1.60 11.80 1.60L11.80 1.60Q14.02 1.60 16.02 0.87Q18.03 0.14 19.28-1.32Q20.53-2.78 20.53-4.77L20.53-4.77Q20.53-6.51 19.54-7.88Q18.55-9.25 17.11-10.24Q15.67-11.23 13.21-12.55L13.21-12.55Q10.62-13.97 9.01-15.05Q7.41-16.14 6.32-17.72Q5.24-19.30 5.24-21.38L5.24-21.38Q5.24-24.07 6.98-27.04Q8.73-30.01 11.89-31.99Q15.05-33.98 18.97-33.98L18.97-33.98Q24.87-33.98 24.87-29.02L24.87-29.02Q24.87-26.61 23.71-23.67Q22.56-20.72 21.09-18.45L21.09-18.45Q19.02-18.88 19.02-20.86L19.02-20.86Q19.02-21.75 19.37-22.91Q19.73-24.07 20.39-25.67L20.39-25.67Q21.05-27.46 21.38-28.50Q21.71-29.54 21.71-30.39L21.71-30.39Q21.71-31.29 21.16-31.73Q20.62-32.18 19.21-32.18L19.21-32.18Q16.37-32.18 14.02-30.58Q11.66-28.97 10.26-26.69Q8.87-24.40 8.87-22.46L8.87-22.46Q8.87-21.05 9.72-19.91Q10.57-18.78 11.87-17.96Q13.17-17.13 15.38-15.95L15.38-15.95Q18.17-14.44 19.84-13.31Q21.52-12.17 22.72-10.38Q23.92-8.59 23.92-6.09L23.92-6.09Q23.92-2.97 22.06-0.66Q20.20 1.65 17.20 2.88Q14.20 4.11 11.00 4.11L11.00 4.11ZM29.07 4.11Q29.63 0.52 30.67-3.49Q31.71-7.50 33.98-14.44L33.98-14.44Q31.38-14.20 30.91-14.16L30.91-14.16Q30.91-15.57 31.97-16.40Q33.03-17.22 35.01-17.65L35.01-17.65Q35.25-18.45 35.63-19.39L35.63-19.39L38.93-29.07Q38.98-29.16 39.24-29.89Q39.50-30.63 39.50-31.33L39.50-31.33Q39.50-31.71 39.36-31.85Q39.21-31.99 38.88-31.99L38.88-31.99Q37.66-31.99 36.41-30.60Q35.16-29.21 34.31-27.25Q33.46-25.29 33.46-23.83L33.46-23.83Q33.46-23.08 33.93-21.71L33.93-21.71Q32.04-21.71 31.12-22.53Q30.20-23.36 30.20-24.82L30.20-24.82Q30.20-26.85 31.83-29.00Q33.46-31.14 35.82-32.56Q38.18-33.98 40.11-33.98L40.11-33.98Q41.53-33.98 42.14-33.24Q42.75-32.51 42.75-31.38L42.75-31.38Q42.75-30.58 42.38-29.35L42.38-29.35L38.93-18.03Q39.69-18.07 41.29-18.07L41.29-18.07Q45.54-18.07 49.55-17.70L49.55-17.70Q52.38-27.23 54.17-31.38L54.17-31.38Q54.65-32.42 55.38-33.22Q56.11-34.02 57.57-34.02L57.57-34.02Q56.58-31.33 55.14-26.59Q53.70-21.85 52.62-17.46L52.62-17.46L54.27-17.41Q55.87-17.32 56.72-17.32L56.72-17.32Q55.40-16.00 54.31-15.57Q53.23-15.15 52.05-15.15L52.05-15.15Q50.68-9.34 50.00-5.05Q49.31-0.76 49.31 1.60L49.31 1.60Q49.31 2.83 49.55 4.11L49.55 4.11Q47.14 3.87 46.27 2.95Q45.40 2.03 45.40-0.28L45.40-0.28Q45.40-2.41 46.13-5.73Q46.86-9.06 48.79-15.10L48.79-15.10Q45.07-15.10 42.49-15.03Q39.92-14.96 37.89-14.77L37.89-14.77Q37.80-14.49 37.00-11.80Q36.19-9.11 33.03 0.90L33.03 0.90Q32.56 2.45 31.36 3.28Q30.15 4.11 29.07 4.11L29.07 4.11ZM68.38 4.11Q65.59 4.11 63.33 2.67Q61.06 1.23 59.77-1.46Q58.47-4.15 58.47-7.74L58.47-7.74Q58.47-13.68 61.46-19.82Q64.46-25.95 69.27-29.94Q74.09-33.93 79.14-33.93L79.14-33.93Q81.07-33.93 82.35-32.61L82.35-32.61Q81.59-32.70 80.98-32.70L80.98-32.70Q77.01-32.70 72.88-28.74Q68.75-24.77 66.06-18.83Q63.38-12.88 63.38-7.46L63.38-7.46Q63.38-3.40 65.00-0.78Q66.63 1.84 70.03 1.84L70.03 1.84Q74.13 1.84 77.56-2.08Q80.98-5.99 82.93-11.82Q84.89-17.65 84.89-22.93L84.89-22.93Q84.89-25.53 84.40-27.63Q83.90-29.73 82.77-29.73L82.77-29.73Q81.78-29.73 80.48-28.05Q79.18-26.38 78.10-24.02Q77.01-21.66 76.64-19.77L76.64-19.77Q73.66-20.39 73.66-22.51L73.66-22.51Q73.66-24.16 75.22-26.33Q76.78-28.50 78.95-30.08Q81.12-31.66 82.86-31.66L82.86-31.66Q85.37-31.66 86.36-28.50Q87.35-25.34 87.35-21.24L87.35-21.24Q87.35-13.68 84.37-7.90Q81.40-2.12 76.99 0.99Q72.58 4.11 68.38 4.11L68.38 4.11ZM92.49 4.11Q91.03 4.11 89.80 3.33Q88.57 2.55 88.57 1.42L88.57 1.42Q88.57 0.61 89.19-1.23L89.19-1.23Q92.82-12.36 95.04-18.59Q97.26-24.82 100.47-31.95L100.47-31.95Q98.06-31.38 95.51-30.06L95.51-30.06Q94.38-29.49 94.14-29.49L94.14-29.49Q93.72-29.49 93.03-30.18Q92.35-30.86 92.35-31.33L92.35-31.33Q98.67-33.98 103.44-33.98L103.44-33.98Q106.55-33.98 109.60-32.89Q112.64-31.81 114.62-29.71Q116.60-27.61 116.60-24.73L116.60-24.73Q116.60-20.20 112.97-17.74Q109.34-15.29 105.02-14.46Q100.70-13.64 97.73-13.64L97.73-13.64L97.45-13.64L94.80-4.15Q93.81-0.38 92.49 4.11L92.49 4.11ZM97.87-15.10Q101.65-15.34 105.02-16.56Q108.39-17.79 110.54-20.06Q112.69-22.32 112.69-25.48L112.69-25.48Q112.69-28.74 110.19-30.48Q107.69-32.23 104.10-32.32L104.10-32.32Q101.27-26.85 97.87-15.10L97.87-15.10Z" transform="translate(-0.18875666803446864, 34.11776774723021)"></path></g></g></g></mask><defs v-gra="od"></defs></svg>